{"title":"Gabbar is Back (2015) S-CamRip - XviD - [1CD] - Team IcTv Exclus","uid":11873814,"size":727748304,"categoryP":"video","categoryS":"other","magnet":"?xt=urn:btih:4f7709f104074bbcda22e4d2b8875d93ae6a93f4&amp;dn=Gabbar+is+Back+%282015%29+S-CamRip+-+XviD+-+%5B1CD%5D+-+Team+IcTv+Exclus&amp;tr=udp%3A%2F%2Ftracker.openbittorrent.com%3A80&amp;tr=udp%3A%2F%2Fopen.demonii.com%3A1337&amp;tr=udp%3A%2F%2Ftracker.coppersurfer.tk%3A6969&amp;tr=udp%3A%2F%2Fexodus.desync.com%3A6969","seeders":10,"leechers":1,"uploader":"juggs99","files":2,"time":1430494665,"description":"Gabbar is Back (2015) S-CamRip - XviD - [1CD] - Team IcTv Exclusive -={SPARROW}=-\n &lt;a href=&quot;\nhttp://imgsparrow.co/image/Jh&quot; rel=&quot;nofollow&quot; target=&quot;_NEW&quot;&gt;\nhttp://imgsparrow.co/image/Jh&lt;/a&gt;\n\nInfo : - \n\nAll Credit Goes To Intellect Clever &amp; IcTv\nIts a CAM So don't compare with BluRay ;)\n\nMovie Info\nBanner : Viacom 18 Motion Pictures\nYear : 2015\nCast : Akshay Kumar.Shruti Haasan.Kareena Kapoor\nVideo: XviD\nAudio : MP3\nGenre : Action / Drama\nSubtitles : None\nResolution : 640 x 272\nRuntime : 1hr 57min xx\nSource : Team IcTv\n\nFormat                                   : AVI\nFormat/Info                              : Audio Video Interleave\nFile size                                : 694 MiB\nDuration                                 : 1h 57mn\nOverall bit rate                         : 825 Kbps\n\nVideo\nID                                       : 0\nFormat                                   : MPEG-4 Visual\nFormat profile                           : Advanced Simple@L5\nFormat settings, BVOP                    : 2\nFormat settings, QPel                    : No\nFormat settings, GMC                     : No warppoints\nFormat settings, Matrix                  : Default (H.263)\nCodec ID                                 : XVID\nCodec ID/Hint                            : XviD\nDuration                                 : 1h 57mn\nBit rate                                 : 691 Kbps\nWidth                                    : 640 pixels\nHeight                                   : 272 pixels\nDisplay aspect ratio                     : 2.35:1\nFrame rate                               : 25.000 fps\nColor space                              : YUV\nChroma subsampling                       : 4:2:0\nBit depth                                : 8 bits\nScan type                                : Progressive\nCompression mode                         : Lossy\nBits/(Pixel*Frame)                       : 0.159\nStream size                              : 581 MiB (84%)\nWriting library                          : XviD 1.2.1 (UTC 2008-12-04)\n\nAudio\nID                                       : 1\nFormat                                   : MPEG Audio\nFormat version                           : Version 1\nFormat profile                           : Layer 3\nMode                                     : Joint stereo\nMode extension                           : MS Stereo\nCodec ID                                 : 55\nCodec ID/Hint                            : MP3\nDuration                                 : 1h 57mn\nBit rate mode                            : Constant\nBit rate                                 : 128 Kbps\nChannel(s)                               : 2 channels\nSampling rate                            : 48.0 KHz\nCompression mode                         : Lossy\nStream size                              : 108 MiB (16%)\n\nScreens : - \n &lt;a href=&quot;\nhttp://imgsparrow.co/image/J7&quot; rel=&quot;nofollow&quot; target=&quot;_NEW&quot;&gt;\nhttp://imgsparrow.co/image/J7&lt;/a&gt; &lt;a href=&quot;\nhttp://imgsparrow.co/image/Jk&quot; rel=&quot;nofollow&quot; target=&quot;_NEW&quot;&gt;\nhttp://imgsparrow.co/image/Jk&lt;/a&gt; &lt;a href=&quot;\nhttp://imgsparrow.co/image/Jn&quot; rel=&quot;nofollow&quot; target=&quot;_NEW&quot;&gt;\nhttp://imgsparrow.co/image/Jn&lt;/a&gt; &lt;a href=&quot;\nhttp://imgsparrow.co/image/Jy&quot; rel=&quot;nofollow&quot; target=&quot;_NEW&quot;&gt;\nhttp://imgsparrow.co/image/Jy&lt;/a&gt; &lt;a href=&quot;\nhttp://imgsparrow.co/image/J5&quot; rel=&quot;nofollow&quot; target=&quot;_NEW&quot;&gt;\nhttp://imgsparrow.co/image/J5&lt;/a&gt; &lt;a href=&quot;\nhttp://imgsparrow.co/image/JA&quot; rel=&quot;nofollow&quot; target=&quot;_NEW&quot;&gt;\nhttp://imgsparrow.co/image/JA&lt;/a&gt; &lt;a href=&quot;\nhttp://imgsparrow.co/image/JQ&quot; rel=&quot;nofollow&quot; target=&quot;_NEW&quot;&gt;\nhttp://imgsparrow.co/image/JQ&lt;/a&gt; &lt;a href=&quot;\nhttp://imgsparrow.co/image/JZ&quot; rel=&quot;nofollow&quot; target=&quot;_NEW&quot;&gt;\nhttp://imgsparrow.co/image/JZ&lt;/a&gt;\n &lt;a href=&quot;\nhttp://imgsparrow.co/image/N2&quot; rel=&quot;nofollow&quot; target=&quot;_NEW&quot;&gt;\nhttp://imgsparrow.co/image/N2&lt;/a&gt;","torrent":{"xt":"urn:btih:4f7709f104074bbcda22e4d2b8875d93ae6a93f4","amp;dn":"Gabbar+is+Back+%282015%29+S-CamRip+-+XviD+-+%5B1CD%5D+-+Team+IcTv+Exclus","amp;tr":["udp%3A%2F%2Ftracker.openbittorrent.com%3A80","udp%3A%2F%2Fopen.demonii.com%3A1337","udp%3A%2F%2Ftracker.coppersurfer.tk%3A6969","udp%3A%2F%2Fexodus.desync.com%3A6969"],"infoHash":"4f7709f104074bbcda22e4d2b8875d93ae6a93f4","infoHashBuffer":{"type":"Buffer","data":[79,119,9,241,4,7,75,188,218,34,228,210,184,135,93,147,174,106,147,244]},"announce":[],"urlList":[]}}